<svg width="450" height="135" viewBox="0 0 450 135" fill="none" xmlns="http://www.w3.org/2000/svg">
	<path d="M65.3676 38.551C64.3665 22.8321 53.7001 13.8459 44.9238 9.07517C35.8668 4.1445 26.1782 2.14964 19.6521 1.34041C16.9293 1.00637 14.2674 0.813468 11.7693 0.780534L1 0.625275V134.102H22.0941V77.9634C28.288 77.0083 36.8539 74.9664 44.9191 70.5815C46.4489 69.7535 47.9178 68.8549 49.2839 67.928C59.2017 61.1671 64.7547 51.8139 65.3816 40.8422C65.4191 40.16 65.4144 39.4731 65.3816 38.7909C65.3769 38.6968 65.3723 38.6168 65.3676 38.551ZM32.3674 58.1372C28.8588 60.0427 25.1115 61.233 22.0894 61.9623V17.6897C25.1115 18.4143 28.8588 19.6093 32.3674 21.5148C39.9602 25.6362 43.9835 31.7948 44.325 39.8307C44.1472 43.8486 43.0525 47.4243 41.0549 50.4777C39.0667 53.5171 36.1521 56.0953 32.3674 58.1419V58.1372Z" fill="white" />
	<path d="M368.904 29.8329C367.786 26.436 366.107 23.2649 363.885 20.3432C360.497 15.8783 355.88 12.0439 350.173 8.94341C336.554 1.5474 321.495 0.766395 317.205 0.709937L306.497 0.549973V134.102L317.205 133.942C321.495 133.876 336.554 133.104 350.182 125.708C359.403 120.688 370.429 111.175 370.584 94.4021C370.588 94.2563 370.588 94.1057 370.588 93.9693V40.6823C370.588 36.8572 370.027 33.2298 368.904 29.8329ZM349.588 93.9646C349.588 102.509 345.579 109.02 337.682 113.316C334.215 115.198 330.496 116.383 327.493 117.108V17.5391C330.487 18.259 334.197 19.4399 337.682 21.3312C345.579 25.6268 349.588 32.1383 349.588 40.6823V93.9646Z" fill="white" />
	<path d="M213.026 75.0323H182.201C185.935 73.8091 189.415 72.3223 192.629 70.5768C194.121 69.7676 195.586 68.8737 196.985 67.9186C206.935 61.1342 212.502 51.7387 213.101 40.6823C213.138 40.0189 213.129 39.3508 213.087 38.6874C213.087 38.6404 213.082 38.5933 213.078 38.5557C212.062 22.818 201.396 13.8318 192.624 9.06577C183.539 4.13039 173.869 2.13554 167.348 1.33572C164.621 1.00167 161.968 0.808774 159.465 0.77584L148.705 0.615875V134.102H169.799V90.4124H192.157L192.816 134.102H213.915L213.021 75.037L213.026 75.0323ZM169.804 61.9576V17.6897C172.817 18.4143 176.569 19.6046 180.077 21.5148C187.67 25.6362 191.693 31.7948 192.04 39.8307C191.693 47.8572 187.67 54.0158 180.077 58.1372C176.569 60.0474 172.817 61.2377 169.804 61.9623V61.9576Z" fill="white" />
	<path d="M136.374 131.928C136.346 130.309 136.322 128.644 136.303 126.922C136.294 126.343 136.289 125.76 136.28 125.167C136.275 125.12 136.275 125.073 136.28 125.021C136.266 124.287 136.257 123.544 136.247 122.791V122.504C136.247 122.368 136.243 122.236 136.243 122.099C136.229 121.088 136.215 120.067 136.201 119.037C136.186 118.03 136.172 117.018 136.158 115.993C136.144 115 136.13 113.993 136.116 112.982C136.107 112.567 136.102 112.153 136.098 111.739C136.06 109.453 136.018 107.133 135.971 104.781C135.939 103.242 135.906 101.69 135.868 100.128C135.812 97.7567 135.747 95.3666 135.672 92.9624C135.667 92.9295 135.667 92.8965 135.667 92.8683C135.256 79.5583 134.521 65.8155 133.08 53.1548C132.959 52.068 132.832 51 132.701 49.9555C132.486 48.21 132.257 46.5162 132.014 44.879C131.298 39.9953 130.479 35.5869 129.562 31.6019C129.431 31.042 129.3 30.4916 129.169 29.9505C129.033 29.4095 128.898 28.8778 128.762 28.3556C128.622 27.8286 128.481 27.3158 128.341 26.8077C128.271 26.5536 128.196 26.2996 128.126 26.0502C128.056 25.8008 127.981 25.5515 127.911 25.3068C127.653 24.4458 127.391 23.6084 127.12 22.7944C126.671 21.4442 126.203 20.1597 125.717 18.9412C125.59 18.626 125.464 18.3154 125.338 18.0096C125.052 17.3227 124.753 16.6593 124.449 16.0148C124.346 15.8031 124.248 15.5866 124.145 15.3796C123.869 14.8197 123.593 14.2787 123.307 13.7517C122.737 12.7073 122.142 11.724 121.525 10.8065C121.371 10.576 121.212 10.3501 121.052 10.129C120.739 9.68676 120.416 9.26333 120.089 8.8493C119.593 8.23297 119.083 7.64957 118.559 7.0991C118.461 6.99089 118.353 6.88268 118.25 6.77447C115.317 3.80571 110.213 0.220626 102.536 0.0089081C102.274 -0.00520642 101.848 -0.000501578 101.652 0.0089081C93.9983 0.220626 88.8944 3.80571 85.9518 6.77447C85.8489 6.88268 85.7459 6.98618 85.643 7.0991C85.1191 7.64957 84.6091 8.23297 84.1132 8.8493C83.7858 9.26333 83.463 9.68676 83.1495 10.129C82.9905 10.3501 82.8314 10.576 82.677 10.8065C82.0595 11.724 81.4654 12.7073 80.8946 13.7517C80.6093 14.2787 80.3286 14.8197 80.0572 15.3796C79.9543 15.5866 79.8561 15.8031 79.7531 16.0148C79.4537 16.6593 79.1543 17.3227 78.8643 18.0096C78.738 18.3154 78.6117 18.626 78.4853 18.9412C77.9988 20.1597 77.531 21.4442 77.0819 22.7944C76.8105 23.6084 76.5486 24.4458 76.2913 25.3068C76.2211 25.5515 76.1462 25.8008 76.0761 26.0502C76.0059 26.2996 75.931 26.5536 75.8609 26.8077C75.772 27.1229 75.6878 27.4428 75.5989 27.7675C75.4071 28.4967 75.2106 29.2401 75.0235 30.0023C74.9626 30.2563 74.8972 30.5104 74.8363 30.7691C74.7708 31.042 74.7053 31.3196 74.6399 31.6019C73.7229 35.5869 72.9089 39.9953 72.1885 44.879C71.9499 46.5162 71.716 48.21 71.5008 49.9555C71.3698 51 71.2435 52.068 71.1218 53.1548C71.0657 53.6488 71.0096 54.1475 70.9628 54.6462C70.9066 55.1449 70.8505 55.6483 70.799 56.1518C70.6961 57.1539 70.5979 58.1654 70.4996 59.177C70.4762 59.4216 70.4528 59.6663 70.4295 59.9156C70.3172 61.1248 70.2143 62.3386 70.1113 63.5619C70.0926 63.783 70.0739 64.0088 70.0552 64.23C69.9523 65.5285 69.854 66.8317 69.7605 68.1444C69.6997 68.9348 69.6435 69.7252 69.5921 70.5203C69.5874 70.5439 69.5874 70.5627 69.5874 70.5862C69.5219 71.5648 69.4611 72.5434 69.4002 73.522C69.1804 77.1306 68.9979 80.7675 68.8435 84.3949C68.8014 85.397 68.764 86.4039 68.7219 87.406C68.6564 89.2315 68.5909 91.0523 68.5348 92.8683C68.4646 95.089 68.4038 97.3003 68.3523 99.4927C68.2681 102.927 68.2026 106.319 68.1418 109.632C68.1371 110.083 68.1278 110.535 68.1231 110.982C68.1044 111.975 68.0903 112.953 68.0763 113.927C68.0342 116.891 67.9968 119.785 67.9594 122.584L67.9219 125.021C67.9079 126.146 67.8939 127.251 67.8798 128.333C67.8752 128.696 67.8705 129.053 67.8658 129.406C67.8658 129.519 67.8658 129.632 67.8658 129.74C67.8611 130.107 67.8564 130.479 67.8518 130.841C67.8424 131.203 67.8377 131.566 67.833 131.923L67.8003 134.102H88.8944L88.9271 131.975C88.9412 130.893 88.9599 129.792 88.9739 128.667C88.9786 128.291 88.9833 127.915 88.9879 127.534C88.9879 127.439 88.9926 127.345 88.9926 127.251C88.9926 127.101 88.9973 126.955 88.9973 126.804L89.0207 125.219L89.0534 122.852L89.0628 122.114C89.0722 121.478 89.0815 120.839 89.0862 120.194C89.0955 119.291 89.1096 118.369 89.1236 117.428C89.1376 116.195 89.1564 114.939 89.1798 113.654C89.1844 113.311 89.1891 112.963 89.1938 112.615C89.2078 111.631 89.2219 110.634 89.2406 109.622C89.2686 108.272 89.292 106.908 89.3201 105.534C89.3295 104.842 89.3482 104.151 89.3622 103.45C89.3762 102.753 89.3903 102.057 89.409 101.351C89.409 101.201 89.4137 101.045 89.4183 100.89C89.4651 98.9282 89.5166 96.9474 89.5774 94.9573C89.5774 94.8961 89.5774 94.8302 89.5821 94.7691C89.6242 93.4 89.671 92.0262 89.7177 90.6523H114.498C114.545 92.0262 114.592 93.4 114.629 94.7691C114.629 94.8302 114.629 94.8914 114.634 94.9573C114.695 96.9474 114.746 98.9282 114.793 100.89C114.793 101.045 114.798 101.196 114.802 101.351C114.821 102.057 114.835 102.753 114.849 103.45C114.863 104.151 114.882 104.842 114.891 105.534C114.924 106.912 114.947 108.277 114.971 109.622C114.989 110.634 115.004 111.631 115.018 112.615C115.022 112.963 115.027 113.311 115.032 113.654C115.05 114.929 115.069 116.186 115.088 117.428C115.102 118.369 115.116 119.291 115.125 120.194C115.134 121.097 115.149 121.982 115.158 122.852L115.191 125.219L115.214 126.804C115.214 126.955 115.219 127.101 115.219 127.251C115.219 127.345 115.219 127.439 115.223 127.534C115.223 127.915 115.233 128.291 115.237 128.667C115.247 129.223 115.256 129.768 115.261 130.309C115.265 130.446 115.265 130.582 115.27 130.714C115.275 131.137 115.28 131.556 115.289 131.975L115.317 134.102H136.411L136.378 131.928H136.374ZM90.4101 75.1687C90.8499 67.6598 91.4347 60.6919 92.1364 54.4439C92.5247 51.0564 92.9504 47.8665 93.4089 44.879C93.5445 44.0039 93.6896 43.1429 93.8346 42.3007C93.8814 42.0184 93.9328 41.7408 93.9796 41.4632C94.0451 41.0963 94.1106 40.7293 94.1761 40.367C94.7562 37.1771 95.3924 34.2554 96.0754 31.6019C96.2251 31.0279 96.3748 30.4633 96.5292 29.9129C96.6836 29.3624 96.838 28.826 96.997 28.3038C97.0719 28.0403 97.1514 27.7816 97.2356 27.5228C97.2965 27.3299 97.3573 27.1417 97.4181 26.9535C97.6005 26.3889 97.7877 25.8385 97.9748 25.3068C98.1292 24.8505 98.2929 24.4082 98.4567 23.9754C98.4613 23.9518 98.4754 23.9283 98.4894 23.9001C98.5081 23.8577 98.5268 23.8201 98.5455 23.7778C98.6251 23.5849 98.7093 23.3967 98.7982 23.2179C98.8543 23.0956 98.9104 22.9732 98.9713 22.8556C99.0227 22.7427 99.0789 22.6298 99.1397 22.5216C99.2098 22.3804 99.2847 22.244 99.3596 22.1122C99.425 21.9899 99.4905 21.877 99.5607 21.7641C99.5794 21.7312 99.5981 21.6982 99.6169 21.67C99.7525 21.4489 99.8882 21.2418 100.029 21.0537C100.099 20.9501 100.174 20.8513 100.253 20.762C100.291 20.7149 100.323 20.6726 100.365 20.6302C100.44 20.5408 100.515 20.4561 100.595 20.3856C100.716 20.2632 100.833 20.155 100.955 20.0656C101.025 20.0092 101.095 19.9574 101.165 19.9151C101.175 19.9151 101.179 19.9057 101.184 19.9057C101.259 19.8586 101.329 19.821 101.399 19.7881C101.404 19.7881 101.409 19.7881 101.413 19.7881C101.483 19.7504 101.558 19.7222 101.628 19.6987C101.638 19.694 101.647 19.694 101.657 19.6893C101.727 19.6704 101.797 19.6516 101.862 19.6422H101.872C101.947 19.6281 102.021 19.6234 102.096 19.6234H102.106C102.181 19.6234 102.255 19.6234 102.33 19.6422H102.34C102.405 19.6516 102.475 19.6704 102.545 19.6893C102.555 19.6893 102.564 19.6987 102.573 19.6987C102.644 19.7222 102.719 19.7504 102.789 19.7881C102.793 19.7881 102.798 19.7881 102.803 19.7881C102.873 19.821 102.948 19.8586 103.018 19.9057C103.027 19.9104 103.032 19.9151 103.037 19.9151C103.107 19.9574 103.177 20.0092 103.247 20.0656C103.701 20.4138 104.15 20.9549 104.585 21.67C104.651 21.7688 104.711 21.8723 104.768 21.9758C104.922 22.2487 105.081 22.5451 105.231 22.8556C105.292 22.9732 105.352 23.0956 105.404 23.2179C105.488 23.4014 105.572 23.5849 105.656 23.7778C105.68 23.8201 105.694 23.8577 105.713 23.9001C105.731 23.9283 105.741 23.9518 105.745 23.9754C105.909 24.4082 106.073 24.8505 106.232 25.3068C106.316 25.5421 106.4 25.782 106.48 26.0267C106.648 26.5113 106.807 27.01 106.971 27.5228C107.051 27.7769 107.13 28.0356 107.21 28.2991C107.523 29.3483 107.832 30.4492 108.131 31.6019C108.931 34.7447 109.675 38.2545 110.339 42.1313C110.494 43.03 110.643 43.9427 110.793 44.879C111.252 47.8665 111.682 51.0564 112.066 54.4439C112.767 60.6919 113.352 67.6598 113.792 75.1687H90.4101Z" fill="white" />
	<path d="M294.479 131.928C294.451 130.309 294.427 128.644 294.408 126.922C294.399 126.343 294.394 125.76 294.385 125.167C294.38 125.12 294.38 125.073 294.385 125.021C294.371 124.287 294.362 123.544 294.352 122.791V122.504C294.352 122.368 294.348 122.236 294.348 122.099C294.334 121.088 294.32 120.067 294.306 119.037C294.291 118.03 294.277 117.018 294.263 115.993C294.249 115 294.235 113.993 294.221 112.982C294.212 112.567 294.207 112.153 294.203 111.739C294.165 109.453 294.123 107.133 294.076 104.781C294.043 103.242 294.011 101.69 293.973 100.128C293.917 97.7567 293.852 95.3666 293.777 92.9624C293.772 92.9295 293.772 92.8965 293.772 92.8683C293.36 79.5583 292.626 65.8155 291.185 53.1548C291.063 52.068 290.937 51 290.806 49.9555C290.591 48.21 290.362 46.5162 290.118 44.879C289.403 39.9953 288.584 35.5869 287.667 31.6019C287.536 31.042 287.405 30.4916 287.274 29.9505C287.138 29.4095 287.003 28.8778 286.867 28.3556C286.727 27.8286 286.586 27.3158 286.446 26.8077C286.376 26.5536 286.301 26.2996 286.231 26.0502C286.161 25.8008 286.086 25.5515 286.016 25.3068C285.758 24.4458 285.496 23.6084 285.225 22.7944C284.776 21.4442 284.308 20.1597 283.822 18.9412C283.695 18.626 283.569 18.3154 283.443 18.0096C283.157 17.3227 282.858 16.6593 282.554 16.0148C282.451 15.8031 282.353 15.5866 282.25 15.3796C281.974 14.8197 281.698 14.2787 281.412 13.7517C280.842 12.7073 280.247 11.724 279.63 10.8065C279.476 10.576 279.316 10.3501 279.157 10.129C278.844 9.68676 278.521 9.26333 278.194 8.8493C277.698 8.23297 277.188 7.64957 276.664 7.0991C276.566 6.99089 276.458 6.88268 276.355 6.77447C273.422 3.80571 268.318 0.220626 260.641 0.0089081C260.379 -0.00520642 259.953 -0.000501578 259.757 0.0089081C252.103 0.220626 246.999 3.80571 244.057 6.77447C243.954 6.88268 243.851 6.98618 243.748 7.0991C243.224 7.64957 242.714 8.23297 242.218 8.8493C241.891 9.26333 241.568 9.68676 241.255 10.129C241.095 10.3501 240.936 10.576 240.782 10.8065C240.164 11.724 239.57 12.7073 239 13.7517C238.714 14.2787 238.434 14.8197 238.162 15.3796C238.059 15.5866 237.961 15.8031 237.858 16.0148C237.559 16.6593 237.259 17.3227 236.969 18.0096C236.843 18.3154 236.717 18.626 236.59 18.9412C236.104 20.1597 235.636 21.4442 235.187 22.7944C234.916 23.6084 234.654 24.4458 234.396 25.3068C234.326 25.5515 234.251 25.8008 234.181 26.0502C234.111 26.2996 234.036 26.5536 233.966 26.8077C233.877 27.1229 233.793 27.4428 233.704 27.7675C233.512 28.4967 233.316 29.2401 233.128 30.0023C233.068 30.2563 233.002 30.5104 232.941 30.7691C232.876 31.042 232.81 31.3196 232.745 31.6019C231.828 35.5869 231.014 39.9953 230.293 44.879C230.055 46.5162 229.821 48.21 229.606 49.9555C229.475 51 229.348 52.068 229.227 53.1548C229.171 53.6488 229.115 54.1475 229.068 54.6462C229.012 55.1449 228.955 55.6483 228.904 56.1518C228.801 57.1539 228.703 58.1654 228.605 59.177C228.581 59.4216 228.558 59.6663 228.534 59.9156C228.422 61.1248 228.319 62.3386 228.216 63.5619C228.198 63.783 228.179 64.0088 228.16 64.23C228.057 65.5285 227.959 66.8317 227.865 68.1444C227.805 68.9348 227.748 69.7252 227.697 70.5203C227.692 70.5439 227.692 70.5627 227.692 70.5862C227.627 71.5648 227.566 72.5434 227.505 73.522C227.285 77.1306 227.103 80.7675 226.949 84.3949C226.906 85.397 226.869 86.4039 226.827 87.406C226.761 89.2315 226.696 91.0523 226.64 92.8683C226.57 95.089 226.509 97.3003 226.457 99.4927C226.373 102.927 226.308 106.319 226.247 109.632C226.242 110.083 226.233 110.535 226.228 110.982C226.209 111.975 226.195 112.953 226.181 113.927C226.139 116.891 226.102 119.785 226.064 122.584L226.027 125.021C226.013 126.146 225.999 127.251 225.985 128.333C225.98 128.696 225.975 129.053 225.971 129.406C225.971 129.519 225.971 129.632 225.971 129.74C225.966 130.107 225.961 130.479 225.957 130.841C225.947 131.203 225.943 131.566 225.938 131.923L225.905 134.102H246.999L247.032 131.975C247.046 130.893 247.065 129.792 247.079 128.667C247.084 128.291 247.088 127.915 247.093 127.534C247.093 127.439 247.098 127.345 247.098 127.251C247.098 127.101 247.102 126.955 247.102 126.804L247.126 125.219L247.158 122.852L247.168 122.114C247.177 121.478 247.186 120.839 247.191 120.194C247.201 119.291 247.215 118.369 247.229 117.428C247.243 116.195 247.261 114.939 247.285 113.654C247.289 113.311 247.294 112.963 247.299 112.615C247.313 111.631 247.327 110.634 247.346 109.622C247.374 108.272 247.397 106.908 247.425 105.534C247.434 104.842 247.453 104.151 247.467 103.45C247.481 102.753 247.495 102.057 247.514 101.351C247.514 101.201 247.519 101.045 247.523 100.89C247.57 98.9282 247.622 96.9474 247.682 94.9573C247.682 94.8961 247.682 94.8302 247.687 94.7691C247.729 93.4 247.776 92.0262 247.823 90.6523H272.603C272.65 92.0262 272.697 93.4 272.734 94.7691C272.734 94.8302 272.734 94.8914 272.739 94.9573C272.8 96.9474 272.851 98.9282 272.898 100.89C272.898 101.045 272.903 101.196 272.907 101.351C272.926 102.057 272.94 102.753 272.954 103.45C272.968 104.151 272.987 104.842 272.996 105.534C273.029 106.912 273.052 108.277 273.076 109.622C273.094 110.634 273.108 111.631 273.123 112.615C273.127 112.963 273.132 113.311 273.137 113.654C273.155 114.929 273.174 116.186 273.193 117.428C273.207 118.369 273.221 119.291 273.23 120.194C273.239 121.097 273.254 121.982 273.263 122.852L273.296 125.219L273.319 126.804C273.319 126.955 273.324 127.101 273.324 127.251C273.324 127.345 273.324 127.439 273.328 127.534C273.328 127.915 273.338 128.291 273.342 128.667C273.352 129.223 273.361 129.768 273.366 130.309C273.37 130.446 273.37 130.582 273.375 130.714C273.38 131.137 273.385 131.556 273.394 131.975L273.422 134.102H294.516L294.483 131.928H294.479ZM248.515 75.1687C248.955 67.6598 249.54 60.6919 250.241 54.4439C250.63 51.0564 251.055 47.8665 251.514 44.879C251.649 44.0039 251.795 43.1429 251.94 42.3007C251.986 42.0184 252.038 41.7408 252.085 41.4632C252.15 41.0963 252.216 40.7293 252.281 40.367C252.861 37.1771 253.497 34.2554 254.18 31.6019C254.33 31.0279 254.48 30.4633 254.634 29.9129C254.789 29.3624 254.943 28.826 255.102 28.3038C255.177 28.0403 255.256 27.7816 255.341 27.5228C255.401 27.3299 255.462 27.1417 255.523 26.9535C255.706 26.3889 255.893 25.8385 256.08 25.3068C256.234 24.8505 256.398 24.4082 256.562 23.9754C256.566 23.9518 256.58 23.9283 256.594 23.9001C256.613 23.8577 256.632 23.8201 256.651 23.7778C256.73 23.5849 256.814 23.3967 256.903 23.2179C256.959 23.0956 257.015 22.9732 257.076 22.8556C257.128 22.7427 257.184 22.6298 257.245 22.5216C257.315 22.3804 257.39 22.244 257.465 22.1122C257.53 21.9899 257.596 21.877 257.666 21.7641C257.684 21.7312 257.703 21.6982 257.722 21.67C257.858 21.4489 257.993 21.2418 258.134 21.0537C258.204 20.9501 258.279 20.8513 258.358 20.762C258.395 20.7149 258.428 20.6726 258.47 20.6302C258.545 20.5408 258.62 20.4561 258.7 20.3856C258.821 20.2632 258.938 20.155 259.06 20.0656C259.13 20.0092 259.2 19.9574 259.27 19.9151C259.28 19.9151 259.284 19.9057 259.289 19.9057C259.364 19.8586 259.434 19.821 259.504 19.7881C259.509 19.7881 259.514 19.7881 259.518 19.7881C259.588 19.7504 259.663 19.7222 259.733 19.6987C259.743 19.694 259.752 19.694 259.762 19.6893C259.832 19.6704 259.902 19.6516 259.967 19.6422H259.977C260.052 19.6281 260.126 19.6234 260.201 19.6234H260.211C260.286 19.6234 260.36 19.6234 260.435 19.6422H260.445C260.51 19.6516 260.58 19.6704 260.65 19.6893C260.66 19.6893 260.669 19.6987 260.678 19.6987C260.749 19.7222 260.823 19.7504 260.894 19.7881C260.898 19.7881 260.903 19.7881 260.908 19.7881C260.978 19.821 261.053 19.8586 261.123 19.9057C261.132 19.9104 261.137 19.9151 261.142 19.9151C261.212 19.9574 261.282 20.0092 261.352 20.0656C261.806 20.4138 262.255 20.9549 262.69 21.67C262.756 21.7688 262.816 21.8723 262.873 21.9758C263.027 22.2487 263.186 22.5451 263.336 22.8556C263.397 22.9732 263.457 23.0956 263.509 23.2179C263.593 23.4014 263.677 23.5849 263.761 23.7778C263.785 23.8201 263.799 23.8577 263.818 23.9001C263.836 23.9283 263.846 23.9518 263.85 23.9754C264.014 24.4082 264.178 24.8505 264.337 25.3068C264.421 25.5421 264.505 25.782 264.585 26.0267C264.753 26.5113 264.912 27.01 265.076 27.5228C265.156 27.7769 265.235 28.0356 265.315 28.2991C265.628 29.3483 265.937 30.4492 266.236 31.6019C267.036 34.7447 267.78 38.2545 268.444 42.1313C268.599 43.03 268.748 43.9427 268.898 44.879C269.357 47.8665 269.787 51.0564 270.171 54.4439C270.872 60.6919 271.457 67.6598 271.897 75.1687H248.515Z" fill="white" />
	<path d="M448.962 131.928C448.934 130.309 448.911 128.644 448.892 126.922C448.883 126.343 448.878 125.76 448.869 125.167C448.864 125.12 448.864 125.073 448.869 125.021C448.855 124.287 448.846 123.544 448.836 122.791V122.504C448.836 122.368 448.831 122.236 448.831 122.099C448.817 121.088 448.803 120.067 448.789 119.037C448.775 118.03 448.761 117.018 448.747 115.993C448.733 115 448.719 113.993 448.705 112.982C448.696 112.567 448.691 112.153 448.686 111.739C448.649 109.453 448.607 107.133 448.56 104.781C448.527 103.242 448.495 101.69 448.457 100.128C448.401 97.7567 448.336 95.3666 448.261 92.9624C448.256 92.9295 448.256 92.8965 448.256 92.8683C447.844 79.5583 447.11 65.8155 445.669 53.1548C445.547 52.068 445.421 51 445.29 49.9555C445.075 48.21 444.846 46.5162 444.602 44.879C443.887 39.9953 443.068 35.5869 442.151 31.6019C442.02 31.042 441.889 30.4916 441.758 29.9505C441.622 29.4095 441.487 28.8778 441.351 28.3556C441.211 27.8286 441.07 27.3158 440.93 26.8077C440.86 26.5536 440.785 26.2996 440.715 26.0502C440.645 25.8008 440.57 25.5515 440.5 25.3068C440.242 24.4458 439.98 23.6084 439.709 22.7944C439.26 21.4442 438.792 20.1597 438.306 18.9412C438.179 18.626 438.053 18.3154 437.927 18.0096C437.641 17.3227 437.342 16.6593 437.038 16.0148C436.935 15.8031 436.837 15.5866 436.734 15.3796C436.458 14.8197 436.182 14.2787 435.896 13.7517C435.325 12.7073 434.731 11.724 434.114 10.8065C433.959 10.576 433.8 10.3501 433.641 10.129C433.328 9.68676 433.005 9.26333 432.678 8.8493C432.182 8.23297 431.672 7.64957 431.148 7.0991C431.05 6.99089 430.942 6.88268 430.839 6.77447C427.906 3.80571 422.802 0.220626 415.125 0.0089081C414.863 -0.00520642 414.437 -0.000501578 414.241 0.0089081C406.587 0.220626 401.483 3.80571 398.541 6.77447C398.438 6.88268 398.335 6.98618 398.232 7.0991C397.708 7.64957 397.198 8.23297 396.702 8.8493C396.375 9.26333 396.052 9.68676 395.738 10.129C395.579 10.3501 395.42 10.576 395.266 10.8065C394.648 11.724 394.054 12.7073 393.484 13.7517C393.198 14.2787 392.917 14.8197 392.646 15.3796C392.543 15.5866 392.445 15.8031 392.342 16.0148C392.043 16.6593 391.743 17.3227 391.453 18.0096C391.327 18.3154 391.201 18.626 391.074 18.9412C390.588 20.1597 390.12 21.4442 389.671 22.7944C389.399 23.6084 389.137 24.4458 388.88 25.3068C388.81 25.5515 388.735 25.8008 388.665 26.0502C388.595 26.2996 388.52 26.5536 388.45 26.8077C388.361 27.1229 388.277 27.4428 388.188 27.7675C387.996 28.4967 387.799 29.2401 387.612 30.0023C387.552 30.2563 387.486 30.5104 387.425 30.7691C387.36 31.042 387.294 31.3196 387.229 31.6019C386.312 35.5869 385.498 39.9953 384.777 44.879C384.539 46.5162 384.305 48.21 384.09 49.9555C383.959 51 383.832 52.068 383.711 53.1548C383.655 53.6488 383.598 54.1475 383.552 54.6462C383.496 55.1449 383.439 55.6483 383.388 56.1518C383.285 57.1539 383.187 58.1654 383.089 59.177C383.065 59.4216 383.042 59.6663 383.018 59.9156C382.906 61.1248 382.803 62.3386 382.7 63.5619C382.681 63.783 382.663 64.0088 382.644 64.23C382.541 65.5285 382.443 66.8317 382.349 68.1444C382.289 68.9348 382.232 69.7252 382.181 70.5203C382.176 70.5439 382.176 70.5627 382.176 70.5862C382.111 71.5648 382.05 72.5434 381.989 73.522C381.769 77.1306 381.587 80.7675 381.432 84.3949C381.39 85.397 381.353 86.4039 381.311 87.406C381.245 89.2315 381.18 91.0523 381.124 92.8683C381.053 95.089 380.993 97.3003 380.941 99.4927C380.857 102.927 380.792 106.319 380.731 109.632C380.726 110.083 380.717 110.535 380.712 110.982C380.693 111.975 380.679 112.953 380.665 113.927C380.623 116.891 380.586 119.785 380.548 122.584L380.511 125.021C380.497 126.146 380.483 127.251 380.469 128.333C380.464 128.696 380.459 129.053 380.455 129.406C380.455 129.519 380.455 129.632 380.455 129.74C380.45 130.107 380.445 130.479 380.441 130.841C380.431 131.203 380.427 131.566 380.422 131.923L380.389 134.102H401.483L401.516 131.975C401.53 130.893 401.549 129.792 401.563 128.667C401.567 128.291 401.572 127.915 401.577 127.534C401.577 127.439 401.582 127.345 401.582 127.251C401.582 127.101 401.586 126.955 401.586 126.804L401.61 125.219L401.642 122.852L401.652 122.114C401.661 121.478 401.67 120.839 401.675 120.194C401.684 119.291 401.698 118.369 401.712 117.428C401.727 116.195 401.745 114.939 401.769 113.654C401.773 113.311 401.778 112.963 401.783 112.615C401.797 111.631 401.811 110.634 401.829 109.622C401.858 108.272 401.881 106.908 401.909 105.534C401.918 104.842 401.937 104.151 401.951 103.45C401.965 102.753 401.979 102.057 401.998 101.351C401.998 101.201 402.003 101.045 402.007 100.89C402.054 98.9282 402.105 96.9474 402.166 94.9573C402.166 94.8961 402.166 94.8302 402.171 94.7691C402.213 93.4 402.26 92.0262 402.307 90.6523H427.087C427.134 92.0262 427.181 93.4 427.218 94.7691C427.218 94.8302 427.218 94.8914 427.223 94.9573C427.284 96.9474 427.335 98.9282 427.382 100.89C427.382 101.045 427.387 101.196 427.391 101.351C427.41 102.057 427.424 102.753 427.438 103.45C427.452 104.151 427.471 104.842 427.48 105.534C427.513 106.912 427.536 108.277 427.56 109.622C427.578 110.634 427.592 111.631 427.606 112.615C427.611 112.963 427.616 113.311 427.62 113.654C427.639 114.929 427.658 116.186 427.677 117.428C427.691 118.369 427.705 119.291 427.714 120.194C427.723 121.097 427.737 121.982 427.747 122.852L427.78 125.219L427.803 126.804C427.803 126.955 427.808 127.101 427.808 127.251C427.808 127.345 427.808 127.439 427.812 127.534C427.812 127.915 427.822 128.291 427.826 128.667C427.836 129.223 427.845 129.768 427.85 130.309C427.854 130.446 427.854 130.582 427.859 130.714C427.864 131.137 427.868 131.556 427.878 131.975L427.906 134.102H449L448.967 131.928H448.962ZM402.999 75.1687C403.439 67.6598 404.024 60.6919 404.725 54.4439C405.114 51.0564 405.539 47.8665 405.998 44.879C406.133 44.0039 406.278 43.1429 406.423 42.3007C406.47 42.0184 406.522 41.7408 406.568 41.4632C406.634 41.0963 406.699 40.7293 406.765 40.367C407.345 37.1771 407.981 34.2554 408.664 31.6019C408.814 31.0279 408.964 30.4633 409.118 29.9129C409.272 29.3624 409.427 28.826 409.586 28.3038C409.661 28.0403 409.74 27.7816 409.825 27.5228C409.885 27.3299 409.946 27.1417 410.007 26.9535C410.189 26.3889 410.377 25.8385 410.564 25.3068C410.718 24.8505 410.882 24.4082 411.046 23.9754C411.05 23.9518 411.064 23.9283 411.078 23.9001C411.097 23.8577 411.116 23.8201 411.134 23.7778C411.214 23.5849 411.298 23.3967 411.387 23.2179C411.443 23.0956 411.499 22.9732 411.56 22.8556C411.612 22.7427 411.668 22.6298 411.729 22.5216C411.799 22.3804 411.874 22.244 411.948 22.1122C412.014 21.9899 412.079 21.877 412.15 21.7641C412.168 21.7312 412.187 21.6982 412.206 21.67C412.341 21.4489 412.477 21.2418 412.617 21.0537C412.688 20.9501 412.762 20.8513 412.842 20.762C412.879 20.7149 412.912 20.6726 412.954 20.6302C413.029 20.5408 413.104 20.4561 413.183 20.3856C413.305 20.2632 413.422 20.155 413.544 20.0656C413.614 20.0092 413.684 19.9574 413.754 19.9151C413.764 19.9151 413.768 19.9057 413.773 19.9057C413.848 19.8586 413.918 19.821 413.988 19.7881C413.993 19.7881 413.997 19.7881 414.002 19.7881C414.072 19.7504 414.147 19.7222 414.217 19.6987C414.227 19.694 414.236 19.694 414.245 19.6893C414.316 19.6704 414.386 19.6516 414.451 19.6422H414.461C414.535 19.6281 414.61 19.6234 414.685 19.6234H414.695C414.769 19.6234 414.844 19.6234 414.919 19.6422H414.928C414.994 19.6516 415.064 19.6704 415.134 19.6893C415.144 19.6893 415.153 19.6987 415.162 19.6987C415.233 19.7222 415.307 19.7504 415.378 19.7881C415.382 19.7881 415.387 19.7881 415.392 19.7881C415.462 19.821 415.537 19.8586 415.607 19.9057C415.616 19.9104 415.621 19.9151 415.625 19.9151C415.696 19.9574 415.766 20.0092 415.836 20.0656C416.29 20.4138 416.739 20.9549 417.174 21.67C417.239 21.7688 417.3 21.8723 417.356 21.9758C417.511 22.2487 417.67 22.5451 417.82 22.8556C417.88 22.9732 417.941 23.0956 417.993 23.2179C418.077 23.4014 418.161 23.5849 418.245 23.7778C418.269 23.8201 418.283 23.8577 418.301 23.9001C418.32 23.9283 418.33 23.9518 418.334 23.9754C418.498 24.4082 418.662 24.8505 418.821 25.3068C418.905 25.5421 418.989 25.782 419.069 26.0267C419.237 26.5113 419.396 27.01 419.56 27.5228C419.639 27.7769 419.719 28.0356 419.798 28.2991C420.112 29.3483 420.421 30.4492 420.72 31.6019C421.52 34.7447 422.264 38.2545 422.928 42.1313C423.083 43.03 423.232 43.9427 423.382 44.879C423.84 47.8665 424.271 51.0564 424.654 54.4439C425.356 60.6919 425.941 67.6598 426.381 75.1687H402.999Z" fill="white" />
</svg>
